# Blender 5.1.1
# www.blender.org
mtllib cigarette1.mtl
o Cylinder.002
v 0.000000 -0.132033 0.470014
v 0.000000 -0.132033 0.721064
v 0.008984 -0.134440 0.470014
v 0.008984 -0.134440 0.721064
v 0.015560 -0.141016 0.470014
v 0.015560 -0.141016 0.721064
v 0.017967 -0.150000 0.470014
v 0.017967 -0.150000 0.721064
v 0.015560 -0.158984 0.470014
v 0.015560 -0.158984 0.721064
v 0.008984 -0.165560 0.470014
v 0.008984 -0.165560 0.721064
v 0.000000 -0.167967 0.470014
v 0.000000 -0.167967 0.721064
v -0.008984 -0.165560 0.470014
v -0.008984 -0.165560 0.721064
v -0.015560 -0.158984 0.470014
v -0.015560 -0.158984 0.721064
v -0.017967 -0.150000 0.470014
v -0.017967 -0.150000 0.721064
v -0.015560 -0.141016 0.470014
v -0.015560 -0.141016 0.721064
v -0.008984 -0.134440 0.470014
v -0.008984 -0.134440 0.721064
v 0.006225 -0.139218 0.738908
v 0.000000 -0.137551 0.738908
v 0.010782 -0.143775 0.738908
v 0.012450 -0.150000 0.738908
v 0.010782 -0.156225 0.738908
v 0.006225 -0.160782 0.738908
v 0.000000 -0.162449 0.738908
v -0.006225 -0.160782 0.738908
v -0.010781 -0.156225 0.738908
v -0.012449 -0.150000 0.738908
v -0.010781 -0.143775 0.738908
v -0.006225 -0.139218 0.738908
v 0.000000 -0.132033 0.470014
v 0.008984 -0.134440 0.470014
v 0.015560 -0.141016 0.470014
v 0.017967 -0.150000 0.470014
v 0.015560 -0.158984 0.470014
v 0.008984 -0.165560 0.470014
v 0.000000 -0.167967 0.470014
v -0.008984 -0.165560 0.470014
v -0.015560 -0.158984 0.470014
v -0.017967 -0.150000 0.470014
v -0.015560 -0.141016 0.470014
v -0.008984 -0.134440 0.470014
vn -0.0000 -0.0000 -1.0000
vn -0.0000 0.9893 0.1459
vn 0.4946 0.8568 0.1459
vn 0.8568 0.4947 0.1459
vn 0.9893 -0.0000 0.1459
vn 0.8568 -0.4947 0.1459
vn 0.4946 -0.8568 0.1459
vn -0.0000 -0.9893 0.1459
vn -0.4947 -0.8568 0.1459
vn -0.8568 -0.4946 0.1459
vn -0.9893 -0.0000 0.1459
vn -0.8568 0.4946 0.1459
vn -0.4947 0.8568 0.1459
vn 0.3252 0.5633 0.7596
vn -0.0000 0.6504 0.7596
vn 0.5633 0.3252 0.7596
vn 0.6504 -0.0000 0.7596
vn 0.5633 -0.3252 0.7596
vn 0.3252 -0.5633 0.7596
vn -0.0000 -0.6504 0.7596
vn -0.3252 -0.5633 0.7596
vn -0.5633 -0.3252 0.7596
vn -0.6504 -0.0000 0.7596
vn -0.5633 0.3252 0.7596
vn -0.3252 0.5633 0.7596
vn -0.0000 1.0000 -0.0000
vn 0.5000 0.8660 -0.0000
vn 0.8660 0.5000 -0.0000
vn 1.0000 -0.0000 -0.0000
vn 0.8660 -0.5000 -0.0000
vn 0.5000 -0.8660 -0.0000
vn -0.0000 -1.0000 -0.0000
vn -0.5000 -0.8660 -0.0000
vn -0.8660 -0.5000 -0.0000
vn -1.0000 -0.0000 -0.0000
vn -0.8660 0.5000 -0.0000
vn -0.5000 0.8660 -0.0000
vt 0.387997 0.995497
vt 0.387997 0.757268
vt 0.396823 0.757268
vt 0.396823 0.995497
vt 0.405648 0.757268
vt 0.405649 0.995497
vt 0.414474 0.757267
vt 0.414474 0.995497
vt 0.423300 0.757267
vt 0.423300 0.995497
vt 0.432125 0.757267
vt 0.432126 0.995497
vt 0.440951 0.757267
vt 0.440952 0.995497
vt 0.335041 0.995497
vt 0.335043 0.757267
vt 0.343869 0.757267
vt 0.343867 0.995497
vt 0.352694 0.757267
vt 0.352693 0.995497
vt 0.361520 0.757268
vt 0.361519 0.995497
vt 0.370346 0.757268
vt 0.370345 0.995497
vt 0.873365 0.845753
vt 0.851489 0.870252
vt 0.805792 0.822688
vt 0.820950 0.805712
vt 0.379171 0.757268
vt 0.379171 0.995497
vt 0.594929 0.543964
vt 0.601891 0.531904
vt 0.613951 0.524941
vt 0.627877 0.524941
vt 0.639937 0.531904
vt 0.646900 0.543964
vt 0.646900 0.557890
vt 0.639937 0.569949
vt 0.627877 0.576912
vt 0.613951 0.576912
vt 0.601891 0.569950
vt 0.594929 0.557890
vt 0.573183 0.711525
vt 0.595941 0.711525
vt 0.615650 0.722904
vt 0.627029 0.742613
vt 0.627028 0.765370
vt 0.615650 0.785079
vt 0.595941 0.796458
vt 0.573183 0.796458
vt 0.553475 0.785079
vt 0.542096 0.765371
vt 0.542096 0.742613
vt 0.553474 0.722904
vt 0.826134 0.891129
vt 0.788224 0.837153
vt 0.797891 0.907896
vt 0.768655 0.848771
vt 0.702692 0.930148
vt 0.669944 0.927636
vt 0.680000 0.862449
vt 0.702692 0.864189
vt 0.735440 0.927636
vt 0.725383 0.862449
vt 0.767423 0.920161
vt 0.747543 0.857269
vt 0.637961 0.920161
vt 0.657840 0.857269
vt 0.607492 0.907897
vt 0.636729 0.848771
vt 0.579250 0.891129
vt 0.617160 0.837154
vt 0.553894 0.870252
vt 0.599591 0.822688
vt 0.532019 0.845753
vt 0.584434 0.805712
s 1
usemtl Material.001
f 37/1/26 2/2/2 4/3/3 38/4/27
f 38/4/27 4/3/3 6/5/4 39/6/28
f 39/6/28 6/5/4 8/7/5 40/8/29
f 40/8/29 8/7/5 10/9/6 41/10/30
f 41/10/30 10/9/6 12/11/7 42/12/31
f 42/12/31 12/11/7 14/13/8 43/14/32
f 43/15/32 14/16/8 16/17/9 44/18/33
f 44/18/33 16/17/9 18/19/10 45/20/34
f 45/20/34 18/19/10 20/21/11 46/22/35
f 46/22/35 20/21/11 22/23/12 47/24/36
f 14/25/8 12/26/7 30/27/19 31/28/20
f 47/24/36 22/23/12 24/29/13 48/30/37
f 48/30/37 24/29/13 2/2/2 37/1/26
f 1/31/1 3/32/1 5/33/1 7/34/1 9/35/1 11/36/1 13/37/1 15/38/1 17/39/1 19/40/1 21/41/1 23/42/1
f 25/43/14 26/44/15 36/45/25 35/46/24 34/47/23 33/48/22 32/49/21 31/50/20 30/51/19 29/52/18 28/53/17 27/54/16
f 12/26/7 10/55/6 29/56/18 30/27/19
f 10/55/6 8/57/5 28/58/17 29/56/18
f 2/59/2 24/60/13 36/61/25 26/62/15
f 4/63/3 2/59/2 26/62/15 25/64/14
f 8/57/5 6/65/4 27/66/16 28/58/17
f 24/60/13 22/67/12 35/68/24 36/61/25
f 6/65/4 4/63/3 25/64/14 27/66/16
f 22/67/12 20/69/11 34/70/23 35/68/24
f 20/69/11 18/71/10 33/72/22 34/70/23
f 18/71/10 16/73/9 32/74/21 33/72/22
f 16/73/9 14/75/8 31/76/20 32/74/21
