# Blender 5.1.1
# www.blender.org
mtllib Cigar1.mtl
o Cylinder.005
v -0.031087 -0.203844 0.845666
v 0.000000 -0.218377 0.407199
v -0.053844 -0.181087 0.845666
v 0.034188 -0.209216 0.407199
v -0.062174 -0.150000 0.845666
v 0.059216 -0.184188 0.407199
v -0.053844 -0.118913 0.845666
v 0.068377 -0.150000 0.407199
v -0.031087 -0.096156 0.845666
v 0.059216 -0.115812 0.407199
v 0.000000 -0.087826 0.845666
v 0.034189 -0.090784 0.407199
v 0.031087 -0.096156 0.845666
v 0.000000 -0.081623 0.407199
v 0.053844 -0.118913 0.845666
v -0.034188 -0.090784 0.407199
v 0.062174 -0.150000 0.845666
v -0.059216 -0.115812 0.407199
v 0.053844 -0.181087 0.845666
v -0.068377 -0.150000 0.407199
v 0.031087 -0.203844 0.845666
v -0.059216 -0.184188 0.407199
v 0.000000 -0.212174 0.845666
v -0.034188 -0.209216 0.407199
v 0.030680 -0.203140 0.366874
v 0.000000 -0.211360 0.366874
v 0.053140 -0.180680 0.366874
v 0.061360 -0.150000 0.366874
v 0.053140 -0.119320 0.366874
v 0.030680 -0.096860 0.366874
v 0.000000 -0.088640 0.366874
v -0.030680 -0.096860 0.366874
v -0.053140 -0.119320 0.366874
v -0.061360 -0.150000 0.366874
v -0.053140 -0.180680 0.366874
v -0.030680 -0.203140 0.366874
v 0.013640 -0.173626 0.331589
v 0.000000 -0.177281 0.331589
v 0.023626 -0.163640 0.331589
v 0.027281 -0.150000 0.331589
v 0.023626 -0.136360 0.331589
v 0.013640 -0.126374 0.331589
v 0.000000 -0.122719 0.331589
v -0.013640 -0.126374 0.331589
v -0.023626 -0.136360 0.331589
v -0.027281 -0.150000 0.331589
v -0.023626 -0.163640 0.331589
v -0.013640 -0.173626 0.331589
v 0.000000 -0.218377 0.803005
v 0.034188 -0.209216 0.803005
v 0.059216 -0.184188 0.803005
v 0.068377 -0.150000 0.803005
v 0.059216 -0.115812 0.803005
v 0.034189 -0.090784 0.803005
v 0.000000 -0.081623 0.803005
v -0.034188 -0.090784 0.803005
v -0.059216 -0.115812 0.803005
v -0.068377 -0.150000 0.803005
v -0.059216 -0.184188 0.803005
v -0.034188 -0.209216 0.803005
v -0.031087 -0.203844 0.845666
v 0.000000 -0.212174 0.845666
v -0.053844 -0.181087 0.845666
v -0.062174 -0.150000 0.845666
v -0.053844 -0.118913 0.845666
v -0.031087 -0.096156 0.845666
v 0.000000 -0.087826 0.845666
v 0.031087 -0.096156 0.845666
v 0.053844 -0.118913 0.845666
v 0.062174 -0.150000 0.845666
v 0.053844 -0.181087 0.845666
v 0.031087 -0.203844 0.845666
vn -0.4948 -0.8570 0.1439
vn -0.0000 -0.9964 -0.0848
vn -0.8570 -0.4948 0.1439
vn 0.4982 -0.8629 -0.0848
vn -0.9896 -0.0000 0.1439
vn 0.8629 -0.4982 -0.0848
vn -0.8570 0.4948 0.1439
vn 0.9964 -0.0000 -0.0848
vn -0.4948 0.8570 0.1439
vn 0.8629 0.4982 -0.0848
vn -0.0000 0.9896 0.1439
vn 0.4982 0.8629 -0.0848
vn 0.4948 0.8570 0.1439
vn -0.0000 0.9964 -0.0848
vn 0.8570 0.4948 0.1439
vn -0.4982 0.8629 -0.0848
vn 0.9896 -0.0000 0.1439
vn -0.8629 0.4982 -0.0848
vn 0.8570 -0.4948 0.1439
vn -0.9964 -0.0000 -0.0848
vn 0.4948 -0.8570 0.1439
vn -0.8629 -0.4982 -0.0848
vn -0.0000 -0.9896 0.1439
vn -0.4982 -0.8629 -0.0848
vn 0.4503 -0.7800 -0.4345
vn -0.0000 -0.9007 -0.4345
vn 0.7800 -0.4503 -0.4345
vn 0.9007 -0.0000 -0.4345
vn 0.7800 0.4503 -0.4345
vn 0.4503 0.7800 -0.4345
vn -0.0000 0.9007 -0.4345
vn -0.4503 0.7800 -0.4345
vn -0.7800 0.4503 -0.4345
vn -0.9007 -0.0000 -0.4345
vn -0.7800 -0.4503 -0.4345
vn -0.4503 -0.7800 -0.4345
vn 0.2215 -0.3836 -0.8965
vn -0.0000 -0.4430 -0.8965
vn 0.3836 -0.2215 -0.8965
vn 0.4430 -0.0000 -0.8965
vn 0.3836 0.2215 -0.8965
vn 0.2215 0.3836 -0.8965
vn -0.0000 0.4430 -0.8965
vn -0.2215 0.3836 -0.8965
vn -0.3836 0.2215 -0.8965
vn -0.4430 -0.0000 -0.8965
vn -0.3836 -0.2215 -0.8965
vn -0.2215 -0.3836 -0.8965
vn -0.0000 -0.9975 0.0713
vn 0.4987 -0.8638 0.0713
vn 0.8638 -0.4987 0.0713
vn 0.9975 -0.0000 0.0713
vn 0.8638 0.4987 0.0713
vn 0.4987 0.8638 0.0713
vn -0.0000 0.9975 0.0713
vn -0.4987 0.8638 0.0713
vn -0.8638 0.4987 0.0713
vn -0.9975 -0.0000 0.0713
vn -0.8638 -0.4987 0.0713
vn -0.4987 -0.8638 0.0713
vn -0.0000 -0.0000 1.0000
vt 0.144085 0.631884
vt 0.148068 0.878312
vt 0.128734 0.879666
vt 0.120258 0.632204
vt 0.108971 0.882374
vt 0.096363 0.632820
vt 0.088461 0.886591
vt 0.072380 0.633718
vt 0.066818 0.892543
vt 0.048286 0.634871
vt 0.043541 0.900356
vt 0.024053 0.636244
vt 0.018203 0.909180
vt -0.000353 0.637796
vt 0.287236 0.635297
vt 0.275821 0.903722
vt 0.250311 0.893912
vt 0.263232 0.634276
vt 0.227549 0.886927
vt 0.239232 0.633373
vt 0.206561 0.882308
vt 0.215394 0.632640
vt 0.186636 0.879526
vt 0.191622 0.632123
vt 0.056968 0.927954
vt 0.033938 0.944148
vt 0.167265 0.878251
vt 0.167864 0.631862
vt 0.689596 0.796012
vt 0.666912 0.791315
vt 0.673657 0.763917
vt 0.694284 0.768188
vt 0.086541 0.964661
vt 0.076459 0.975512
vt 0.077030 0.917461
vt 0.095890 0.910145
vt 0.166793 0.900226
vt 0.149400 0.900290
vt 0.131878 0.901895
vt 0.114093 0.905106
vt 0.184194 0.901792
vt 0.201755 0.905251
vt 0.219662 0.911133
vt 0.238195 0.920425
vt 0.258165 0.935064
vt 0.058884 0.336613
vt 0.096857 0.311725
vt 0.142185 0.309158
vt 0.182724 0.329599
vt 0.207611 0.367572
vt 0.210178 0.412900
vt 0.189737 0.453439
vt 0.151765 0.478326
vt 0.106437 0.480893
vt 0.065898 0.460452
vt 0.041011 0.422480
vt 0.038444 0.377152
vt 0.123842 0.945190
vt 0.110753 0.949933
vt 0.190123 0.941473
vt 0.177301 0.939461
vt 0.222416 0.960229
vt 0.213439 0.951408
vt 0.098194 0.956307
vt 0.164095 0.938959
vt 0.150683 0.939780
vt 0.137213 0.941848
vt 0.202309 0.945302
vt 0.625859 0.851636
vt 0.637405 0.869254
vt 0.638596 0.890284
vt 0.629112 0.909092
vt 0.611495 0.920639
vt 0.590464 0.921830
vt 0.571656 0.912346
vt 0.560109 0.894729
vt 0.558918 0.873698
vt 0.568402 0.854890
vt 0.586020 0.843343
vt 0.607050 0.842152
vt 0.781923 0.797667
vt 0.758859 0.799837
vt 0.757264 0.771667
vt 0.778235 0.769693
vt 0.735698 0.800285
vt 0.736204 0.772074
vt 0.712567 0.799007
vt 0.715171 0.770912
vt 0.804761 0.793786
vt 0.799002 0.766165
vt 0.827247 0.788216
vt 0.819448 0.761100
vt 0.849257 0.780988
vt 0.839461 0.754528
vt 0.870667 0.772142
vt 0.858929 0.746484
vt 0.891359 0.761727
vt 0.877744 0.737014
vt 0.644640 0.784943
vt 0.622904 0.776930
vt 0.633642 0.750838
vt 0.653406 0.758123
s 1
usemtl Material.001
f 49/1/49 2/2/2 4/3/4 50/4/50
f 50/4/50 4/3/4 6/5/6 51/6/51
f 51/6/51 6/5/6 8/7/8 52/8/52
f 52/8/52 8/7/8 10/9/10 53/10/53
f 53/10/53 10/9/10 12/11/12 54/12/54
f 54/12/54 12/11/12 14/13/14 55/14/55
f 55/15/55 14/16/14 16/17/16 56/18/56
f 56/18/56 16/17/16 18/19/18 57/20/57
f 57/20/57 18/19/18 20/21/20 58/22/58
f 58/22/58 20/21/20 22/23/22 59/24/59
f 14/13/14 12/11/12 30/25/30 31/26/31
f 59/24/59 22/23/22 24/27/24 60/28/60
f 60/28/60 24/27/24 2/2/2 49/1/49
f 52/29/52 53/30/53 15/31/15 17/32/17
f 31/26/31 30/25/30 42/33/42 43/34/43
f 12/11/12 10/9/10 29/35/29 30/25/30
f 10/9/10 8/7/8 28/36/28 29/35/29
f 2/2/2 24/27/24 36/37/36 26/38/26
f 4/3/4 2/2/2 26/38/26 25/39/25
f 8/7/8 6/5/6 27/40/27 28/36/28
f 24/27/24 22/23/22 35/41/35 36/37/36
f 6/5/6 4/3/4 25/39/25 27/40/27
f 22/23/22 20/21/20 34/42/34 35/41/35
f 20/21/20 18/19/18 33/43/33 34/42/34
f 18/19/18 16/17/16 32/44/32 33/43/33
f 16/17/16 14/16/14 31/45/31 32/44/32
f 37/46/37 38/47/38 48/48/48 47/49/47 46/50/46 45/51/45 44/52/44 43/53/43 42/54/42 41/55/41 40/56/40 39/57/39
f 28/36/28 27/40/27 39/58/39 40/59/40
f 35/41/35 34/42/34 46/60/46 47/61/47
f 32/44/32 31/45/31 43/62/43 44/63/44
f 29/35/29 28/36/28 40/59/40 41/64/41
f 36/37/36 35/41/35 47/61/47 48/65/48
f 25/39/25 26/38/26 38/66/38 37/67/37
f 33/43/33 32/44/32 44/63/44 45/68/45
f 30/25/30 29/35/29 41/64/41 42/33/42
f 26/38/26 36/37/36 48/65/48 38/66/38
f 27/40/27 25/39/25 37/67/37 39/58/39
f 34/42/34 33/43/33 45/68/45 46/60/46
f 62/69/61 72/70/61 71/71/61 70/72/61 69/73/61 68/74/61 67/75/61 66/76/61 65/77/61 64/78/61 63/79/61 61/80/61
f 60/81/60 49/82/49 23/83/23 1/84/1
f 49/82/49 50/85/50 21/86/21 23/83/23
f 51/87/51 52/29/52 17/32/17 19/88/19
f 59/89/59 60/81/60 1/84/1 3/90/3
f 50/85/50 51/87/51 19/88/19 21/86/21
f 58/91/58 59/89/59 3/90/3 5/92/5
f 57/93/57 58/91/58 5/92/5 7/94/7
f 56/95/56 57/93/57 7/94/7 9/96/9
f 55/97/55 56/95/56 9/96/9 11/98/11
f 54/99/54 55/100/55 11/101/11 13/102/13
f 53/30/53 54/99/54 13/102/13 15/31/15
